<?xml version="1.0" encoding="utf-8"?>
<!-- Generator: Adobe Illustrator 27.5.0, SVG Export Plug-In . SVG Version: 6.00 Build 0)  -->
<svg version="1.1" xmlns="http://www.w3.org/2000/svg" xmlns:xlink="http://www.w3.org/1999/xlink" x="0px" y="0px"
	 viewBox="0 0 500 500" style="enable-background:new 0 0 500 500;" xml:space="preserve">
<g id="BACKGROUND">
	<rect style="fill:#F2F2F2;" width="500" height="500"/>
</g>
<g id="OBJECTS">
	<g>
		<g>
			<path style="fill:#FFFFFF;" d="M235.411,221.262c0,47.051-38.142,85.194-85.193,85.194s-85.193-38.143-85.193-85.194
				c0-3.702,0.236-7.349,0.694-10.927c37.297-20.205,47.942-32.371,84.499-74.267c2.195,0,4.372,0.083,6.525,0.246
				C200.745,139.647,235.411,176.406,235.411,221.262z"/>
			<g>
				<path style="fill:#040F26;" d="M236.466,221.262c0.516,35.622-23.432,69.648-57.059,81.358
					c-46.47,17.041-99.016-9.741-112.466-57.396c-3.265-11.344-4.223-23.365-2.687-35.076c0.062-0.485,0.364-0.89,0.761-1.11
					c16.597-8.836,32.455-19.04,45.982-32.172c13.587-13.032,25.773-27.531,38.254-41.641c0.25-0.289,0.611-0.441,0.967-0.439
					C197.319,134.492,236.948,174.142,236.466,221.262L236.466,221.262z M234.356,221.262c0.327-33.281-21.124-65.22-52.005-77.578
					c-10.159-4.208-21.145-6.314-32.133-6.333l0.966-0.439c-12.496,14.225-24.627,28.762-38.281,41.949
					c-13.614,13.317-29.771,23.81-46.482,32.772c0,0,0.761-1.11,0.761-1.11c-0.652,4.941-0.762,9.967-0.553,14.944
					c1.217,29.395,19.113,57.178,45.392,70.426C167.733,324.5,234.251,283.865,234.356,221.262L234.356,221.262z"/>
			</g>
			<path style="opacity:0.3;fill:#662D91;" d="M216.167,264.503c-17.124,17.124-42.558,27.657-66.769,27.657
				c-25.585,0-48.295-10.697-66.769-27.657c-5.192-4.766-9.531-10.2-13.152-16.067c11.346,33.721,43.195,58.019,80.741,58.019
				c40.239,0,73.939-27.907,82.861-65.416C228.448,249.924,222.633,258.037,216.167,264.503z"/>
			<circle style="fill:#731014;" cx="167.529" cy="196.73" r="34.556"/>
			<g style="opacity:0.3;">
				<polygon style="fill:#FFFFFF;" points="194.19,196.73 199.334,199.675 193.683,201.623 198.106,205.43 191.586,206.051 
					193.74,209.783 192.706,212.322 192.747,215.778 190.397,217.58 187.888,219.066 186.343,221.644 184.566,224.243 180.609,223 
					177.38,222.163 176.223,227.291 173.087,226.465 169.952,222.842 167.529,228.559 164.761,226.605 162.685,222.62 
					158.781,227.477 158.323,220.492 153.244,225.41 150.75,223.822 149.07,221.17 148.646,217.443 146.174,216.196 146.77,212.402 
					144.827,210.783 139.77,210.553 142.238,206.527 142.415,203.878 141.188,201.658 140.1,199.274 141.775,196.73 136.77,193.882 
					135.817,190.805 142.32,189.556 138.344,185.423 139.32,182.681 140.794,180.173 143.853,178.85 144.233,175.491 
					146.373,173.523 151.947,176.091 154.07,174.986 155.552,172.674 157.87,171.796 159.205,167.476 162.743,171.155 
					165.096,170.521 167.529,169.349 169.958,170.55 172.918,167.901 175.758,167.81 177.829,170.144 180.511,170.66 
					183.825,170.416 186.198,172.012 185.428,177.096 188.579,177.542 188.658,180.778 192.433,181.311 195.748,182.678 
					196.474,185.517 195.919,188.653 197.135,191.196 197.502,193.954 				"/>
			</g>
			<circle style="fill:#040F26;" cx="167.529" cy="193.823" r="24.051"/>
			<g>
				<path style="fill:#040F26;" d="M203.14,196.73c0.126,25.287-25.98,42.814-49.355,33.179
					c-29.645-12.342-29.644-54.021-0.001-66.361C177.161,153.915,203.267,171.443,203.14,196.73L203.14,196.73z M201.03,196.73
					c0.063-23.647-24.464-39.945-46.203-30.665c-27.068,11.617-27.066,49.72-0.001,61.335
					C176.566,236.677,201.095,220.378,201.03,196.73L201.03,196.73z"/>
			</g>
			<path style="fill:#FFFFFF;" d="M186.557,185.005c-1.381-5.789-6.691-10.029-12.457-10.887c-0.881-0.19-1.79-0.292-2.724-0.291
				c-4.314,0.006-7.945,2.709-8.319,7.14c-0.306,3.618,1.536,5.857,3.544,8.604c1.852,2.535,3.04,5.173,6.102,6.506
				C180.289,199.38,188.54,193.318,186.557,185.005z"/>
			<path style="fill:#FFFFFF;" d="M159.473,182.697c-0.406-0.581-0.858-1.095-1.384-1.512c-0.081-0.09-0.147-0.2-0.234-0.28
				c-0.998-0.916-2.309-1.596-3.703-1.534c-1.301,0.058-2.85,0.474-3.703,1.534c-0.881,1.095-1.42,1.853-1.869,3.179
				c-0.275,0.812-0.398,1.734-0.401,2.587c-0.008,2.811,1.758,5.483,4.549,6.197c2.706,0.692,5.96-0.587,7.342-3.033
				C161.313,187.633,160.891,184.726,159.473,182.697z"/>
			<path style="fill:#FFFFFF;" d="M166.902,194.416c-2.686-1.617-6.323-1.94-9.066-0.242c-0.6,0.371-1.101,0.818-1.551,1.298
				c-0.655,0.601-1.236,1.336-1.716,2.233c-1.479,2.762-2.461,7.384-0.8,10.221c1.528,2.611,5.272,4.202,8.015,5.098
				c3.194,1.044,7.371,0.962,9.951-1.453C176.971,206.668,171.932,197.444,166.902,194.416z"/>
			<path style="fill:#FFFFFF;" d="M180.59,199.824c-5.617,0-5.626,8.729,0,8.729C186.207,208.553,186.216,199.824,180.59,199.824z"
				/>
			<path style="opacity:0.3;fill:#662D91;" d="M128.962,196.994c38.567-27.222,39.735-58.912,39.735-58.912
				c-3.892-0.861-7.882-1.459-11.954-1.767c-2.154-0.163-4.33-0.246-6.525-0.246c-36.557,41.896-47.202,54.062-84.499,74.267
				c-0.245,1.918-0.416,3.858-0.532,5.814C65.187,216.149,90.395,224.216,128.962,196.994z"/>
			<g>
				<path style="fill:#040F26;" d="M52.679,212.753c23.852-7.401,50.3-30.487,67.95-48.06c9.639-9.83,17.199-21.442,26.483-31.486
					c9.41-10.54,17.825-20.629,26.451-32.291c0.499-0.749,1.807-0.421,1.855,0.498c0.777,7.738-0.697,15.477-3.043,22.756
					c-4.823,14.388-13.192,27.526-24.376,37.66c-5.524,5.031-11.36,9.626-17.075,14.265c-11.462,9.204-23.661,17.406-36.609,24.321
					c-9.722,5.098-19.825,9.613-30.467,12.431c-3.581,0.852-7.202,1.542-10.868,1.802c-0.531,0.038-0.992-0.362-1.029-0.893
					C51.918,213.282,52.235,212.865,52.679,212.753L52.679,212.753z"/>
			</g>
			<g>
				<path style="fill:#040F26;" d="M187.861,93.717c2.474,6.65,4.841,17.304-0.184,23.272c-0.398,0.428-1.067,0.453-1.494,0.055
					c-0.392-0.364-0.443-0.954-0.149-1.379c1.78-2.975,1.698-6.812,1.485-10.258c-0.271-3.684-0.952-7.424-1.669-11.051
					C185.561,93.096,187.374,92.52,187.861,93.717L187.861,93.717z"/>
			</g>
		</g>
		<g>
			<path style="fill:#FFFFFF;" d="M264.589,221.262c0,47.051,38.142,85.194,85.194,85.194s85.194-38.143,85.194-85.194
				c0-3.702-0.236-7.349-0.694-10.927c-37.297-20.205-47.942-32.371-84.499-74.267c-2.195,0-4.372,0.083-6.525,0.246
				C299.255,139.647,264.589,176.406,264.589,221.262z"/>
			<g>
				<path style="fill:#040F26;" d="M265.644,221.262c0.11,62.603,66.617,103.239,122.335,74.631
					c26.278-13.25,44.176-41.03,45.392-70.426c0.207-4.978,0.101-10.003-0.552-14.944l0.761,1.11
					c-16.711-8.962-32.867-19.455-46.481-32.772c-13.654-13.187-25.785-27.724-38.281-41.949c0,0,0.966,0.439,0.966,0.439
					c-10.988,0.02-21.974,2.125-32.133,6.333C286.771,156.044,265.313,187.979,265.644,221.262L265.644,221.262z M263.534,221.262
					c-0.477-47.121,39.143-86.771,86.249-86.476c0.386-0.002,0.732,0.168,0.966,0.439c12.48,14.109,24.667,28.61,38.254,41.641
					c13.527,13.132,29.385,23.335,45.982,32.171c0.429,0.233,0.699,0.661,0.761,1.11c1.537,11.711,0.578,23.731-2.686,35.076
					c-13.45,47.65-65.996,74.441-112.466,57.395C286.969,290.907,263.014,256.885,263.534,221.262L263.534,221.262z"/>
			</g>
			<path style="opacity:0.3;fill:#662D91;" d="M283.833,264.503c17.124,17.124,42.558,27.657,66.769,27.657
				c25.585,0,48.295-10.697,66.769-27.657c5.192-4.766,9.531-10.2,13.152-16.067c-11.346,33.721-43.195,58.019-80.741,58.019
				c-40.239,0-73.939-27.907-82.861-65.416C271.552,249.924,277.367,258.037,283.833,264.503z"/>
			<circle style="fill:#731014;" cx="332.471" cy="196.73" r="34.556"/>
			<g style="opacity:0.3;">
				<polygon style="fill:#FFFFFF;" points="305.879,196.73 304.333,199.339 304.171,202.022 307.272,203.902 306.648,206.735 
					305.993,209.917 305.71,213.304 311.048,212.908 310.058,217.165 313.231,217.838 313.495,221.858 316.388,222.705 
					319.533,222.715 320.86,226.702 325.337,221.797 327.295,224.411 329.572,228.041 332.471,226.206 335.325,227.545 
					337.341,222.762 340.6,225.296 343.642,225.562 344.498,220.884 348.862,223.197 351.29,221.646 349.949,215.903 
					355.589,217.804 353.302,212.457 359.758,213.628 358.086,209.484 358.842,206.946 357.756,203.926 358.954,201.684 
					360.016,199.285 359.136,196.73 357.889,194.37 360.534,191.483 361.927,188.35 356.832,187.293 357.218,184.408 
					359.392,180.058 353.265,181.029 353.076,177.945 353.726,173.414 348.092,176.04 349.536,169.174 343.993,173.584 
					341.873,172.46 339.934,170.507 337.958,167.379 335.147,167.865 332.471,164.856 329.595,165.674 327.528,170.304 
					324.049,167.129 320.987,167.09 318.608,168.895 316.496,170.934 313.106,171.092 314.285,176.782 313.531,179.467 
					307.188,177.637 309.857,182.732 308.854,184.973 307.809,187.177 305.326,189.006 306.557,191.882 306.102,194.283 				"/>
			</g>
			<circle style="fill:#040F26;" cx="332.471" cy="193.823" r="24.051"/>
			<g>
				<path style="fill:#040F26;" d="M298.97,196.73c-0.063,23.647,24.463,39.948,46.204,30.669
					c27.068-11.617,27.063-49.721-0.002-61.335C323.435,156.787,298.905,173.083,298.97,196.73L298.97,196.73z M296.86,196.73
					c-0.126-25.288,25.979-42.817,49.357-33.182c29.645,12.342,29.641,54.021-0.002,66.361
					C322.839,239.543,296.733,222.017,296.86,196.73L296.86,196.73z"/>
			</g>
			<path style="fill:#FFFFFF;" d="M313.443,185.005c1.381-5.789,6.691-10.029,12.457-10.887c0.881-0.19,1.79-0.292,2.724-0.291
				c4.314,0.006,7.945,2.709,8.319,7.14c0.306,3.618-1.536,5.857-3.544,8.604c-1.852,2.535-3.04,5.173-6.102,6.506
				C319.711,199.38,311.46,193.318,313.443,185.005z"/>
			<path style="fill:#FFFFFF;" d="M339.931,189.835c1.382,2.446,4.636,3.725,7.342,3.033c2.791-0.714,4.557-3.386,4.549-6.197
				c-0.002-0.852-0.126-1.775-0.401-2.587c-0.449-1.326-0.988-2.084-1.869-3.179c-0.853-1.06-2.403-1.476-3.703-1.534
				c-1.395-0.063-2.705,0.618-3.703,1.534c-0.087,0.08-0.153,0.19-0.234,0.28c-0.526,0.417-0.978,0.931-1.384,1.512
				C339.109,184.726,338.687,187.633,339.931,189.835z"/>
			<path style="fill:#FFFFFF;" d="M328.266,211.572c2.58,2.416,6.757,2.497,9.951,1.453c2.743-0.897,6.487-2.487,8.015-5.098
				c1.66-2.837,0.679-7.459-0.8-10.221c-0.48-0.897-1.061-1.632-1.716-2.233c-0.45-0.48-0.951-0.927-1.551-1.298
				c-2.744-1.698-6.38-1.375-9.066,0.242C328.068,197.444,323.029,206.668,328.266,211.572z"/>
			<path style="fill:#FFFFFF;" d="M319.41,199.824c5.617,0,5.626,8.729,0,8.729C313.793,208.553,313.783,199.824,319.41,199.824z"/>
			<path style="opacity:0.3;fill:#662D91;" d="M371.038,196.994c-38.567-27.222-39.735-58.912-39.735-58.912
				c3.892-0.861,7.882-1.459,11.954-1.767c2.154-0.163,4.33-0.246,6.525-0.246c36.557,41.896,47.202,54.062,84.499,74.267
				c0.245,1.918,0.416,3.858,0.531,5.814C434.813,216.149,409.605,224.216,371.038,196.994z"/>
			<g>
				<path style="fill:#040F26;" d="M447.019,214.65c-26.192-2.439-57.589-22.308-77.944-38.554
					c-11.514-9.291-23.643-18.538-31.571-31.394c-8.005-12.758-14.224-27.877-12.923-43.287c0.076-0.905,1.339-1.266,1.855-0.498
					c4.529,6.058,8.734,11.528,13.141,16.827c8.683,10.626,18.018,20.222,26.349,31.146c8.28,11.109,18.153,21.034,28.655,30.121
					c10.46,9.278,21.622,17.902,33.663,25.052c6.039,3.551,12.32,6.758,19.074,8.69c0.525,0.131,0.845,0.678,0.693,1.2
					C447.886,214.4,447.464,214.682,447.019,214.65L447.019,214.65z"/>
			</g>
			<g>
				<path style="fill:#040F26;" d="M318.264,94.637c-4.169,7.698-7.596,17.857-2.241,25.793c0.742,1.081-0.785,2.285-1.66,1.303
					c-5.424-5.914-4.745-14.975-1.605-21.821c1.025-2.296,2.214-4.448,3.771-6.477c0.355-0.463,1.017-0.55,1.48-0.195
					C318.447,93.575,318.544,94.182,318.264,94.637L318.264,94.637z"/>
			</g>
			<g>
				<path style="fill:#040F26;" d="M312.447,87.368c-3.358,3.81-5.394,8.688-5.838,13.761c-0.089,1.271-1.943,1.332-2.109,0.074
					c-0.848-5.843,1.767-12.07,6.632-15.485C312.214,85.002,313.373,86.474,312.447,87.368L312.447,87.368z"/>
			</g>
		</g>
		<g>
			<g style="opacity:0.9;">
				<path style="fill:#1CAEED;" d="M142.193,293.353c-2.781-7.557-10.737-8.425-17.726-8.203c-0.947,0.03-3.002,0.448-3.856,0.017
					c-1.003-0.505-1.976-2.966-2.509-3.907c-1.82-3.213-3.528-6.499-6.097-9.201c-2.59-2.725-5.953-4.666-9.721-5.057
					c-3.642-0.378-6.908,0.973-10.388,1.649c-3.261-5.989-10.051-10.635-16.846-7.171c-3.189,1.626-5.601,5.013-5.573,8.655
					c0.029,3.697,2.571,6.642,5.698,8.302c2.436,1.294,5.161,1.953,6.992,4.151c1.665,1.999,2.492,4.552,3.085,7.043
					c1.681,7.056,1.816,14.771,1.704,21.987c-0.127,8.156-1.619,15.861-4.323,23.548c-2.731,7.765-5.947,15.348-8.274,23.254
					c-2.325,7.9-3.86,16.213-3.496,24.477c0.325,7.399,1.901,15.626,6.497,21.638c4.66,6.095,12.427,8.124,19.206,4.134
					c6.856-4.035,9.381-11.843,9.563-19.404c0.197-8.174-1.536-16.415-3.222-24.37c-1.732-8.171-3.429-16.314-4.283-24.633
					c-0.855-8.342-1.116-16.745-0.779-25.124c0.172-4.284,0.294-8.721,1.001-12.956c0.018-0.105,0.136-0.57,0.231-0.95
					c0.339,0.215,0.685,0.442,0.818,0.535c2.541,1.781,5.031,3.584,8.31,3.425c1.714-0.083,3.294-1.132,4.933-1.204
					c0.93-0.041,1.702,0.729,2.407,1.337c2.719,2.348,5.249,4.492,8.801,5.469c3.537,0.972,7.318,0.767,10.675-0.706
					C141.241,307.36,144.557,299.778,142.193,293.353z"/>
			</g>
			<g style="opacity:0.5;">
				<path style="fill:#1CAEED;" d="M89.608,395.802c-9.502,2.211-15.706-3.423-18.618-10.947c0.508,6.865,2.173,14.193,6.369,19.682
					c4.66,6.095,12.427,8.124,19.206,4.134c6.856-4.035,9.381-11.843,9.563-19.404c0.094-3.903-0.259-7.821-0.83-11.717
					C103.219,385.841,98.532,393.726,89.608,395.802z"/>
				<path style="fill:#1CAEED;" d="M80.917,278.187c-1.66-1.871-3.621-3.253-5.127-5.283c-2.036-2.743-3.127-6.732-2.64-10.149
					c-2.193,1.816-3.695,4.512-3.673,7.381c0.029,3.697,2.571,6.642,5.698,8.302c2.437,1.294,5.161,1.953,6.992,4.151
					c0.996,1.196,1.671,2.598,2.197,4.059C84.072,283.603,83.29,280.86,80.917,278.187z"/>
				<path style="fill:#1CAEED;" d="M142.28,293.635c-0.063,0.653-0.164,1.323-0.349,2.029c-2.038,7.755-10.783,8.706-17.341,6.717
					c-2.132-0.647-3.709-1.879-5.691-2.773c-3.59-1.619-4.552-0.574-8.321-0.081c-2.266,0.296-7.396-1.168-9.16,0.679
					c-0.428,0.448-0.614,1.241-0.674,2.156c2.258,1.565,4.548,2.974,7.462,2.833c1.714-0.083,3.294-1.132,4.933-1.204
					c0.93-0.041,1.702,0.729,2.407,1.337c2.719,2.347,5.249,4.492,8.801,5.468c3.537,0.972,7.318,0.767,10.675-0.706
					C141.151,307.399,144.449,299.998,142.28,293.635z"/>
			</g>
			<g>
				<g>
					<g>
						<path style="fill:#040F26;" d="M141.202,293.718c-2.387-6.939-10.69-7.828-17.061-7.443c-2.963,0.376-4.527,0.51-5.973-2.432
							c-3.74-7.457-8.915-16.64-18.526-15.666c-2.411,0.244-4.855,1.107-7.52,1.636c-0.519,0.103-1.028-0.152-1.266-0.596
							c-2.677-5.043-8.692-9.47-14.425-7.019c-8.069,3.691-7.332,12.749,0.851,15.839c5.749,2.037,8.076,5.828,9.303,11.59
							c1.496,6.458,1.75,13.04,1.739,19.517c0.07,6.496-0.63,13.133-2.266,19.478c-1.355,5.587-4.323,12.994-6.31,18.421
							c-4.458,11.853-8.173,24.311-7.321,37.033c0.63,8.757,2.871,19.352,11.149,23.852c5.334,2.832,11.965,1.034,15.883-3.401
							c10.068-11.543,3.341-31.789,0.915-45.401c-3.458-15.819-4.5-32.186-3.573-48.349c0.131-3.235,0.381-6.563,1.12-9.781
							c0.148-0.645,0.791-1.047,1.435-0.899c2.298,1.184,4.257,3.23,6.412,3.713c1.012,0.248,2.095,0.33,3.133,0.121
							c1.125-0.233,2.677-1.043,4.264-1.088c1.429-0.049,2.575,1.153,3.48,1.928c2.647,2.33,5.554,4.57,9.051,5.195
							c4.495,0.928,9.568-0.211,12.682-3.563C141.539,303.118,142.795,297.989,141.202,293.718L141.202,293.718z M143.183,292.989
							c1.903,5.098,0.452,11.035-3.226,14.908c-3.678,3.967-9.522,5.306-14.7,4.259c-3.938-0.694-7.203-3.12-10.096-5.656
							c-0.65-0.52-1.156-1.122-1.806-1.346c-1.27-0.042-2.318,0.671-3.943,1.031c-2.706,0.621-5.754-0.328-7.911-1.88
							c0,0-3.081-2.094-3.081-2.094l1.812-0.741c-1.313,6.182-1.091,12.728-1.3,19.028c-0.147,12.83,1.263,25.556,3.988,38.11
							c2.721,14.689,9.599,35.091-1.395,47.808c-4.65,5.349-12.839,7.484-19.238,4.083c-6.335-3.174-9.638-9.938-11.341-16.418
							c-4.161-16.162,0.309-32.94,6.14-48.032c1.988-5.327,4.956-12.694,6.295-18.109c1.602-6.139,2.299-12.421,2.26-18.81
							c-0.082-7.129,0.038-21.87-5.423-26.654c-2.432-1.839-6.034-2.534-8.4-4.852c-10.08-9.351,3.075-23.41,14.046-16.902
							c3.066,1.725,5.43,4.368,7.073,7.362l-1.265-0.596c2.443-0.462,4.952-1.351,7.736-1.636
							c5.649-0.658,11.175,2.411,14.573,6.736c2.168,2.697,3.646,5.534,5.28,8.472c0.534,0.992,1.039,2.316,1.749,3.035
							c0.148,0.118,0.049,0.068,0.288,0.126c0.84,0.11,1.706-0.065,2.645-0.138C131.227,283.596,140.518,285.048,143.183,292.989
							L143.183,292.989z"/>
					</g>
				</g>
				<g>
					<path style="fill:#040F26;" d="M97.391,302.454c-1.044-1.249-1.749-2.727-2.16-4.268c-0.338-0.945-1.022-6.227,0.361-4.604
						c0.386,1.313,0.922,2.64,1.604,3.819c0.628,1.145,1.459,2.16,2.401,3.014C101.094,301.904,98.76,304.067,97.391,302.454
						L97.391,302.454z"/>
				</g>
			</g>
			<path style="opacity:0.3;fill:#FFFFFF;" d="M83.489,373.971c-0.77,5.539-3.251,9.772-5.542,9.454
				c-2.291-0.318-3.524-5.067-2.754-10.607s3.251-9.772,5.542-9.454C83.026,363.682,84.258,368.431,83.489,373.971z"/>
			<path style="opacity:0.3;fill:#FFFFFF;" d="M80.798,268.789c-2.333-0.7-3.936-2.228-3.581-3.413s2.535-1.578,4.868-0.878
				c2.333,0.7,3.936,2.228,3.581,3.413C85.311,269.096,83.131,269.489,80.798,268.789z"/>
			<path style="opacity:0.3;fill:#FFFFFF;" d="M131.136,296.203c-2.793-1.997-4.236-4.766-3.221-6.185
				c1.014-1.419,4.101-0.95,6.895,1.048c2.793,1.997,4.236,4.766,3.221,6.185C137.016,298.67,133.929,298.201,131.136,296.203z"/>
			<path style="opacity:0.3;fill:#FFFFFF;" d="M103.446,279.918c-3.014-3.014-4.216-6.697-2.685-8.228
				c1.531-1.531,5.214-0.328,8.228,2.685c3.014,3.014,4.216,6.697,2.685,8.228S106.46,282.932,103.446,279.918z"/>
		</g>
		<g>
			<g>
				<path style="opacity:0.9;fill:#1CAEED;" d="M428.563,270.077v0.052c-0.035,3.701-2.584,6.651-5.709,8.31
					c-2.426,1.292-5.15,1.955-6.983,4.155c-0.105,0.122-0.192,0.244-0.262,0.367l-0.262,0.367c-0.052,0.052-0.105,0.105-0.157,0.157
					c0,0.018,0,0.035-0.018,0.035c-0.419,0.436-0.82,0.873-1.239,1.274c-1.118,1.1-2.34,2.043-4.05,2.304
					c-1.414,0.227-2.584-0.681-3.98-0.646c-1.309,0.035-1.92,1.048-2.339,2.165c-0.541,1.519-0.681,3.143-1.048,4.696
					c-0.384,1.589-1.048,3.177-1.711,4.661c-0.559,1.222-1.24,2.427-2.13,3.439c-0.227,0.157-0.436,0.297-0.541,0.349
					c-2.531,1.781-5.028,3.596-8.31,3.439c-1.711-0.087-3.282-1.135-4.923-1.205c-0.943-0.052-1.711,0.716-2.409,1.327
					c-2.724,2.357-5.255,4.487-8.799,5.464c-3.544,0.978-7.332,0.768-10.684-0.698c-6.215-2.723-9.532-10.318-7.175-16.742
					c2.793-7.559,10.736-8.415,17.737-8.205c0.943,0.035,3.003,0.454,3.858,0.017c0.995-0.506,1.973-2.968,2.497-3.893
					c1.833-3.212,3.526-6.512,6.093-9.2c2.601-2.741,5.953-4.679,9.724-5.063c3.649-0.384,6.913,0.978,10.388,1.641
					c3.265-5.988,10.056-10.632,16.847-7.158c0.677,0.35,1.308,0.804,1.906,1.305c-0.001-0.01-0.001-0.021-0.003-0.031
					c0.279,0.227,0.541,0.471,0.786,0.716c0.122,0.122,0.244,0.244,0.367,0.384c0.122,0.14,0.227,0.262,0.349,0.402
					c0.105,0.14,0.21,0.279,0.314,0.419c0.384,0.506,0.698,1.03,0.96,1.589c0.087,0.175,0.175,0.367,0.245,0.559
					c0.122,0.262,0.209,0.524,0.279,0.768c0.052,0.157,0.105,0.332,0.14,0.506c0.035,0.14,0.07,0.279,0.087,0.419
					c0.035,0.122,0.052,0.262,0.07,0.384c0.035,0.175,0.052,0.332,0.052,0.506C428.545,269.641,428.563,269.85,428.563,270.077z"/>
				<path style="opacity:0.9;fill:#1CAEED;" d="M411.475,331.655c-1.24-2.593-2.532-5.287-3.413-8.026
					c-0.278-0.864-0.404-2.117-1.047-2.804c-0.701-0.749-1.178,0.443-1.338,1.035c-0.267,0.992-0.331,2.054-0.475,3.068
					c-0.212,1.49-0.43,2.978-0.664,4.465c-0.989,6.302-8.325,30.365-9.397,35.427c-0.005,0.026-0.011,0.052-0.017,0.078
					c-1.686,7.955-3.419,16.196-3.222,24.37c0.182,7.561,2.708,15.369,9.563,19.404c6.779,3.99,14.546,1.96,19.206-4.134
					c4.597-6.012,6.172-14.239,6.497-21.638C427.533,374.635,424.022,357.894,411.475,331.655z"/>
				<g>
					<path style="fill:#040F26;" d="M410.523,332.11c-1.384-2.931-2.868-5.832-3.725-9.032c-0.152-0.632-0.304-1.177-0.56-1.498
						c0.017,0.022,0.258,0.142,0.486,0.079c0.221-0.054,0.271-0.154,0.261-0.13c-0.016,0.013-0.117,0.188-0.176,0.363
						c-0.064,0.172-0.116,0.383-0.166,0.62c-0.413,2.622-0.675,5.228-1.155,7.855c-2.009,9.416-4.83,18.605-7.29,27.849
						c-2.221,8.095-3.902,16.441-4.659,24.776c-0.659,7.941-0.021,16.838,6.124,22.483c6.02,5.752,15.303,4.708,20.095-2.126
						c4.757-6.587,6.229-15.319,6.101-23.365C424.507,363.171,417.474,347.314,410.523,332.11L410.523,332.11z M412.427,331.2
						c7.14,15.475,14.365,31.472,15.986,48.652c0.228,8.735-1.167,17.871-6.343,25.201c-3.901,5.728-11.829,8.792-18.517,6.236
						c-20.281-8.254-12.075-37.595-7.814-53.759c2.757-10.249,6.382-20.221,8.062-30.678c0.372-1.937,0.37-3.811,0.964-5.713
						c0.26-0.61,0.575-1.374,1.485-1.601c0.703-0.127,1.175,0.151,1.549,0.537c0.638,0.66,0.926,1.752,1.096,2.489
						C409.678,325.536,411.111,328.373,412.427,331.2L412.427,331.2z"/>
				</g>
				<g>
					<path style="fill:#040F26;" d="M429.618,270.077c0.024,3.659-2.334,6.922-5.328,8.772c-2.635,1.73-5.825,2.17-7.721,4.66
						c-0.162,0.239-0.377,0.569-0.596,0.758l0.325-0.783c-0.001,0.204-0.057,0.593-0.404,0.88c-0.264,0.222-0.567,0.263-0.716,0.261
						l0.793-0.34c-2.45,2.795-5.394,4.993-9.164,3.434c-0.495-0.11-0.97-0.218-1.358,0.025c-1.298,1.323-1.293,3.779-1.741,5.734
						c-0.619,3.246-1.609,6.503-3.756,9.157c-2.441,3.219-6.812,4.311-10.65,3.845c-1.577-0.162-2.993-1.023-4.44-1.13
						c-0.373,0.001-0.706,0.353-1.08,0.66c-1.497,1.323-2.983,2.639-4.7,3.797c-10.902,7.497-26.509,0.446-25.437-13.502
						c1.19-11.172,12.259-13.475,21.604-12.428c0.352,0.064,1.368,0.083,1.542,0.031c-0.061,0.046,0.171-0.141,0.329-0.379
						c0.176-0.241,0.355-0.538,0.528-0.848c3.883-7.73,9.386-16.954,19.274-16.957c3.458,0.001,6.505,1.221,9.423,1.787l-1.23,0.581
						c0.973-1.753,2.205-3.353,3.655-4.746c4.386-4.505,11.872-5.789,16.803-1.379c0,0-1.758,0.982-1.758,0.982l-0.003-0.031
						l-0.011-0.127c-0.119-0.925,1.103-1.514,1.756-0.866c1.205,1.027,2.312,2.318,2.995,3.753
						C429.28,267.212,429.593,268.488,429.618,270.077L429.618,270.077z M427.507,270.077c0.021-2.048-1.074-4.231-2.283-5.508
						c-0.18-0.23-0.806-0.763-1.025-0.971l1.745-0.993c0.097,0.618-0.34,1.201-0.967,1.257c-0.295,0.027-0.576-0.069-0.788-0.244
						c-0.685-0.568-1.355-1.033-2.133-1.367c-5.888-2.795-12.182,1.664-14.914,6.946c-0.244,0.453-0.751,0.677-1.23,0.581
						c-3.202-0.606-6.121-1.685-8.97-1.622c-6.035,0.086-10.694,4.626-13.533,9.72c-1.182,2.033-2.249,3.937-3.323,6.132
						c-0.569,0.969-0.856,1.673-2.022,2.403c-1.972,0.786-3.369,0.073-5.314,0.145c-4.243-0.055-9.175,0.323-12.466,2.957
						c-4.431,3.496-4.754,10.489-1.622,15.017c3.106,4.883,9.658,6.433,15.014,4.765c2.715-0.791,5.075-2.578,7.423-4.589
						l0.88-0.757c2.103-2.127,4.362-1.138,6.72-0.308c3.283,0.803,7.14,0.135,9.315-2.615c1.783-2.14,2.743-5.061,3.331-7.998
						c0.591-2.633,0.827-7.604,4.575-7.725c1.154-0.056,2.601,0.681,3.469,0.704c1.315-0.059,2.399-0.747,3.381-1.644
						c0.537-0.49,1.069-1.078,1.604-1.612l0.794-0.34c-0.141-0.002-0.436,0.038-0.695,0.254c-0.317,0.268-0.396,0.641-0.39,0.817
						c-0.167,0.09-0.327-0.139-0.195-0.266l0.52-0.517l0.157-0.156l-0.119,0.14c0.311-0.446,0.693-0.994,1.167-1.428
						c2.042-2.064,5.243-2.801,7.521-4.233C425.573,275.527,427.5,272.984,427.507,270.077L427.507,270.077z"/>
				</g>
			</g>
			<g style="opacity:0.5;">
				<path style="fill:#1CAEED;" d="M408.424,395.802c9.502,2.211,15.706-3.423,18.618-10.947
					c-0.508,6.865-2.173,14.193-6.369,19.682c-4.66,6.095-12.427,8.124-19.206,4.134c-6.856-4.035-9.381-11.843-9.563-19.404
					c-0.094-3.903,0.259-7.821,0.83-11.717C394.813,385.841,399.5,393.726,408.424,395.802z"/>
				<path style="fill:#1CAEED;" d="M428.563,270.077v0.052c-0.035,3.701-2.584,6.651-5.709,8.31
					c-2.426,1.292-5.15,1.955-6.983,4.155c-0.105,0.122-0.192,0.244-0.262,0.367c-0.157,0.175-0.279,0.349-0.419,0.524
					c0,0.018,0,0.035-0.018,0.035c-0.419,0.436-0.82,0.873-1.239,1.274c0.419-2.322,1.292-4.487,3.177-6.599
					c1.658-1.885,3.631-3.265,5.133-5.29c2.042-2.741,3.125-6.739,2.636-10.143c0.279,0.227,0.541,0.471,0.786,0.716
					c0.122,0.122,0.244,0.244,0.367,0.384c0.122,0.14,0.227,0.262,0.349,0.402c0.105,0.14,0.21,0.279,0.314,0.419
					c0.384,0.506,0.698,1.03,0.96,1.589c0.087,0.175,0.175,0.367,0.245,0.559c0.122,0.262,0.209,0.524,0.279,0.768
					c0.052,0.157,0.105,0.332,0.14,0.506c0.035,0.14,0.07,0.279,0.087,0.419c0.035,0.122,0.052,0.262,0.07,0.384
					c0.035,0.175,0.052,0.332,0.052,0.506C428.545,269.641,428.563,269.85,428.563,270.077z"/>
				<path style="fill:#1CAEED;" d="M355.752,293.635c0.063,0.653,0.164,1.323,0.349,2.029c2.038,7.755,10.783,8.706,17.341,6.717
					c2.132-0.647,3.709-1.879,5.691-2.773c3.59-1.619,4.552-0.574,8.322-0.081c2.266,0.296,7.395-1.168,9.16,0.679
					c0.428,0.448,0.614,1.241,0.674,2.156c-2.258,1.565-4.547,2.974-7.462,2.833c-1.714-0.083-3.294-1.132-4.933-1.204
					c-0.93-0.041-1.702,0.729-2.407,1.337c-2.719,2.347-5.25,4.492-8.801,5.468c-3.537,0.972-7.318,0.767-10.675-0.706
					C356.88,307.399,353.583,299.998,355.752,293.635z"/>
			</g>
			<path style="opacity:0.3;fill:#FFFFFF;" d="M414.543,373.971c0.77,5.539,3.251,9.772,5.542,9.454
				c2.291-0.318,3.524-5.067,2.754-10.607c-0.77-5.539-3.251-9.772-5.542-9.454C415.006,363.682,413.773,368.431,414.543,373.971z"
				/>
			<path style="opacity:0.3;fill:#FFFFFF;" d="M417.233,268.789c2.333-0.7,3.936-2.228,3.581-3.413s-2.535-1.578-4.868-0.878
				c-2.333,0.7-3.936,2.228-3.581,3.413C412.721,269.096,414.9,269.489,417.233,268.789z"/>
			<path style="opacity:0.3;fill:#FFFFFF;" d="M366.896,296.203c2.793-1.997,4.236-4.766,3.221-6.185
				c-1.014-1.419-4.101-0.95-6.895,1.048c-2.793,1.997-4.236,4.766-3.221,6.185C361.016,298.67,364.103,298.201,366.896,296.203z"/>
			<path style="opacity:0.3;fill:#FFFFFF;" d="M394.586,279.918c3.014-3.014,4.216-6.697,2.685-8.228
				c-1.53-1.531-5.214-0.328-8.228,2.685c-3.014,3.014-4.216,6.697-2.685,8.228C387.888,284.134,391.572,282.932,394.586,279.918z"
				/>
		</g>
		<g>
			<g>
				<path style="fill:#040F26;" d="M299.322,323.444c-16.527-24.743-52.01-32.157-78.083-18.87
					c-8.718,4.304-16.356,10.804-21.827,18.87c-0.544,0.809-1.645,1.021-2.451,0.471c-0.768-0.524-0.988-1.555-0.525-2.345
					c2.65-4.505,6.037-8.563,9.858-12.137c23.276-21.727,62.867-21.724,86.142,0.003c3.822,3.573,7.209,7.631,9.861,12.134
					c0.493,0.837,0.214,1.916-0.624,2.409C300.867,324.454,299.835,324.211,299.322,323.444L299.322,323.444z"/>
			</g>
			<g>
				<path style="fill:#040F26;" d="M235.323,305.978c9.751-2.504,20.267-1.993,29.835,1.063c1.525,0.418,3.667,1.395,5.142,1.999
					c0.783,0.411,2.9,1.519,3.648,1.948c1.101,0.731,2.338,1.562,3.397,2.335c0.531,0.365,0.047,1.237-0.543,0.97
					c-1.207-0.502-2.513-1.09-3.697-1.644c-5.269-2.095-10.843-3.749-16.457-4.582c-6.937-1.138-14.051-1.418-21.175-1.133
					C234.92,306.973,234.77,306.109,235.323,305.978L235.323,305.978z"/>
			</g>
		</g>
	</g>
</g>
</svg>
